<svg xmlns="http://www.w3.org/2000/svg" width="220" height="66" viewBox="0 0 220 66" fill="none"><path d="M20.2198 47.6378C19.8367 47.8533 19.3818 47.997 18.855 48.0688C18.3522 48.1646 17.8255 48.2125 17.2748 48.2125V35.6065H2.94498V47.6378C2.56189 47.8533 2.10697 47.997 1.58023 48.0688C1.07743 48.1646 0.550686 48.2125 0 48.2125V22.7133C0.814058 22.2823 1.79572 22.0668 2.94498 22.0668V33.9185H17.2748V22.7133C18.0889 22.2823 19.0705 22.0668 20.2198 22.0668V47.6378Z" fill="white"></path><path d="M27.5843 38.6952C27.6561 39.9881 27.8836 41.1254 28.2666 42.107C28.6737 43.0647 29.1884 43.8668 29.811 44.5133C30.4335 45.1598 31.1518 45.6506 31.9658 45.9858C32.8038 46.297 33.6897 46.4527 34.6235 46.4527C35.7967 46.4527 36.8023 46.297 37.6403 45.9858C38.5022 45.6745 39.2804 45.1837 39.9747 44.5133C40.3099 44.5851 40.5374 44.8126 40.6571 45.1957C40.4895 45.459 40.2141 45.7823 39.8311 46.1654C39.4719 46.5484 38.9811 46.9196 38.3586 47.2787C37.76 47.6378 37.0297 47.9371 36.1678 48.1766C35.3298 48.4399 34.3481 48.5716 33.2228 48.5716C32.0257 48.5716 30.9123 48.3561 29.8828 47.9252C28.8532 47.4942 27.9554 46.8717 27.1892 46.0576C26.423 45.2436 25.8125 44.238 25.3576 43.0408C24.9266 41.8437 24.7111 40.4909 24.7111 38.9825C24.7111 37.5938 24.9505 36.2889 25.4294 35.0678C25.9083 33.8228 26.5547 32.7453 27.3688 31.8355C28.2068 30.9257 29.1765 30.2074 30.2778 29.6807C31.4032 29.13 32.6003 28.8546 33.8693 28.8546C35.234 28.8546 36.3593 29.0821 37.2452 29.537C38.1311 29.9919 38.8255 30.5785 39.3283 31.2968C39.855 32.0151 40.2141 32.8052 40.4057 33.6671C40.6212 34.5291 40.7289 35.3671 40.7289 36.1812C40.5374 36.4685 40.274 36.7199 39.9388 36.9354C39.6275 37.1508 39.2804 37.3184 38.8973 37.4382L27.5843 38.6952ZM32.9355 30.4708C32.1933 30.4708 31.4989 30.6025 30.8525 30.8658C30.206 31.1292 29.6434 31.5362 29.1645 32.0869C28.6856 32.6376 28.2906 33.3439 27.9793 34.2059C27.692 35.0678 27.5364 36.1093 27.5124 37.3304L37.6403 36.2889C37.6642 36.1692 37.6762 36.0495 37.6762 35.9298C37.6762 35.81 37.6762 35.7023 37.6762 35.6065C37.6762 34.8643 37.5804 34.1819 37.3889 33.5594C37.1973 32.9369 36.8981 32.3982 36.491 31.9433C36.1079 31.4883 35.6171 31.1292 35.0185 30.8658C34.4439 30.6025 33.7496 30.4708 32.9355 30.4708Z" fill="white"></path><path d="M60.6014 46.6322C60.5296 46.752 60.4099 46.8956 60.2423 47.0632C60.0986 47.2308 59.931 47.3984 59.7395 47.566C59.5479 47.7097 59.3324 47.8414 59.093 47.9611C58.8775 48.0808 58.674 48.1646 58.4825 48.2125C57.7163 48.1646 57.0698 47.8773 56.5431 47.3505C56.0164 46.7998 55.729 46.0816 55.6812 45.1957C55.4896 45.5548 55.2023 45.9379 54.8192 46.3449C54.4361 46.728 53.9692 47.0872 53.4185 47.4224C52.8918 47.7336 52.2813 47.985 51.5869 48.1766C50.8926 48.392 50.1384 48.4998 49.3243 48.4998C47.6244 48.4998 46.2716 48.0688 45.266 47.2069C44.2843 46.3449 43.7935 45.1957 43.7935 43.7591C43.7935 42.2746 44.3562 41.0296 45.4815 40.024C46.6068 39.0184 48.5342 38.2762 51.2637 37.7973L55.5375 37.0431V35.6424C55.5375 33.9186 55.1305 32.6017 54.3164 31.6919C53.5263 30.782 52.3411 30.3271 50.7609 30.3271C49.7792 30.3271 48.9412 30.5785 48.2469 31.0813C47.5765 31.5602 47.2413 32.2785 47.2413 33.2362C47.2413 33.6671 47.3849 34.0502 47.6723 34.3854C47.4568 34.6728 47.1096 34.9361 46.6307 35.1756C46.1519 35.415 45.6611 35.5586 45.1583 35.6065C45.0385 35.4868 44.8949 35.3072 44.7273 35.0678C44.5597 34.8284 44.4759 34.5052 44.4759 34.0981C44.4759 33.3559 44.6914 32.6615 45.1223 32.0151C45.5533 31.3686 46.116 30.8179 46.8103 30.363C47.5047 29.8842 48.3067 29.5131 49.2166 29.2497C50.1264 28.9863 51.0721 28.8546 52.0538 28.8546C54.3523 28.8546 55.9804 29.3814 56.9382 30.4349C57.8959 31.4644 58.3747 32.9129 58.3747 34.7805V43.795C58.3747 44.7767 58.5902 45.459 59.0212 45.8421C59.4522 46.2013 59.955 46.4168 60.5296 46.4886L60.6014 46.6322ZM50.4736 46.5963C51.7186 46.5963 52.7721 46.309 53.634 45.7344C54.5199 45.1598 55.1544 44.4175 55.5375 43.5077V38.336L50.725 39.198C49.4321 39.4374 48.4384 39.8444 47.7441 40.4191C47.0737 40.9937 46.7385 41.8197 46.7385 42.8971C46.7385 44.0943 47.0976 45.0161 47.8159 45.6626C48.5581 46.2851 49.444 46.5963 50.4736 46.5963Z" fill="white"></path><path d="M64.086 20.8457C64.4931 20.6302 64.936 20.4746 65.4149 20.3788C65.9177 20.2831 66.4205 20.2352 66.9233 20.2352V47.6738C66.5881 47.8653 66.1451 47.997 65.5945 48.0688C65.0677 48.1646 64.5649 48.2125 64.086 48.2125V20.8457Z" fill="white"></path><path d="M76.269 23.5752C76.0535 23.9583 75.7183 24.3653 75.2634 24.7963C74.8084 25.2033 74.4014 25.4906 74.0423 25.6582C73.6831 25.4906 73.2761 25.2033 72.8212 24.7963C72.3663 24.3653 72.0191 23.9583 71.7797 23.5752C72.0191 23.1682 72.3663 22.7492 72.8212 22.3182C73.2761 21.8872 73.6831 21.576 74.0423 21.3844C74.4014 21.576 74.8084 21.8872 75.2634 22.3182C75.7422 22.7492 76.0774 23.1682 76.269 23.5752ZM72.5339 29.8243C72.9409 29.6088 73.3838 29.4532 73.8627 29.3574C74.3655 29.2617 74.8683 29.2138 75.3711 29.2138V47.6738C75.0359 47.8653 74.593 47.997 74.0423 48.0688C73.5155 48.1646 73.0127 48.2125 72.5339 48.2125V29.8243Z" fill="white"></path><path d="M94.199 36.7558C94.199 34.7206 93.78 33.2362 92.942 32.3024C92.104 31.3447 90.9188 30.8658 89.3865 30.8658C88.8358 30.8658 88.2851 30.9736 87.7344 31.1891C87.2077 31.3806 86.6929 31.644 86.1901 31.9792C85.7112 32.3144 85.2563 32.7094 84.8254 33.1643C84.3944 33.5953 84.0113 34.0502 83.6761 34.5291V47.6738C83.3409 47.8653 82.898 47.997 82.3473 48.0688C81.8205 48.1646 81.3177 48.2125 80.8389 48.2125V29.8243C81.629 29.4173 82.5149 29.2138 83.4965 29.2138V32.7693C83.8078 32.3623 84.2029 31.9313 84.6817 31.4764C85.1845 30.9975 85.7352 30.5665 86.3338 30.1835C86.9563 29.8004 87.6267 29.4891 88.345 29.2497C89.0872 28.9863 89.8773 28.8546 90.7153 28.8546C92.6547 28.8546 94.187 29.4412 95.3123 30.6144C96.4616 31.7876 97.0362 33.4636 97.0362 35.6424V47.6738C96.701 47.8653 96.2581 47.997 95.7074 48.0688C95.1807 48.1646 94.6779 48.2125 94.199 48.2125V36.7558Z" fill="white"></path><path d="M108.366 41.8915C108.007 41.8915 107.66 41.8796 107.325 41.8556C107.014 41.8077 106.69 41.7599 106.355 41.712C105.733 41.9514 105.23 42.2627 104.847 42.6457C104.464 43.0049 104.272 43.4119 104.272 43.8668C104.272 44.5612 104.631 45.04 105.35 45.3034C106.068 45.5668 107.121 45.7344 108.51 45.8062L112.281 45.9858C113.406 46.0337 114.352 46.2132 115.118 46.5245C115.908 46.8358 116.543 47.2308 117.022 47.7097C117.501 48.1646 117.848 48.6794 118.063 49.254C118.279 49.8286 118.387 50.4033 118.387 50.9779C118.387 51.9595 118.135 52.8574 117.632 53.6715C117.13 54.4855 116.423 55.1799 115.513 55.7545C114.628 56.3291 113.562 56.7721 112.317 57.0833C111.072 57.4185 109.707 57.5861 108.223 57.5861C107.097 57.5861 106.068 57.4904 105.134 57.2988C104.2 57.1073 103.386 56.808 102.692 56.401C102.022 56.0179 101.495 55.539 101.112 54.9644C100.729 54.4137 100.537 53.7553 100.537 52.9891C100.537 52.3905 100.645 51.8638 100.86 51.4089C101.1 50.9539 101.399 50.5589 101.758 50.2237C102.141 49.8885 102.56 49.6012 103.015 49.3617C103.47 49.1463 103.925 48.9787 104.38 48.8589C104.5 48.9068 104.595 49.0026 104.667 49.1463C104.739 49.2899 104.787 49.4216 104.811 49.5413C104.38 49.7807 104.009 50.104 103.698 50.511C103.386 50.918 103.231 51.4927 103.231 52.2349C103.231 52.8574 103.386 53.3961 103.698 53.851C104.033 54.3299 104.488 54.725 105.062 55.0362C105.637 55.3475 106.319 55.5749 107.109 55.7186C107.924 55.8622 108.809 55.9341 109.767 55.9341C111.802 55.9341 113.323 55.5749 114.328 54.8566C115.358 54.1384 115.873 53.2405 115.873 52.1631C115.873 51.0856 115.489 50.2117 114.723 49.5413C113.957 48.8709 112.628 48.4758 110.737 48.3561L107.002 48.1406C105.206 48.0209 103.889 47.7216 103.051 47.2428C102.213 46.74 101.794 45.9858 101.794 44.9802C101.794 44.5492 101.878 44.1422 102.046 43.7591C102.237 43.376 102.477 43.0288 102.764 42.7176C103.075 42.4063 103.41 42.131 103.769 41.8915C104.153 41.6282 104.524 41.4127 104.883 41.2451C103.829 40.7902 103.003 40.1198 102.405 39.2339C101.806 38.324 101.507 37.2227 101.507 35.9298C101.507 34.9481 101.71 34.0263 102.117 33.1643C102.548 32.3024 103.135 31.5602 103.877 30.9377C104.619 30.2912 105.481 29.7884 106.463 29.4293C107.469 29.0462 108.546 28.8546 109.695 28.8546C110.102 28.8546 110.485 28.8786 110.845 28.9264C111.204 28.9743 111.551 29.0342 111.886 29.106C112.006 29.13 112.125 29.1419 112.245 29.1419C112.389 29.1419 112.556 29.1419 112.748 29.1419C113.801 29.1419 114.52 28.9743 114.903 28.6391C115.31 28.28 115.513 27.837 115.513 27.3103C115.513 26.999 115.454 26.7357 115.334 26.5202C115.214 26.2808 115.058 26.0772 114.867 25.9096C115.609 25.2153 116.495 24.8681 117.525 24.8681C117.74 25.0597 117.92 25.323 118.063 25.6582C118.207 25.9695 118.279 26.3286 118.279 26.7357C118.279 27.7413 117.872 28.5194 117.058 29.0701C116.268 29.5969 115.226 29.8842 113.933 29.9321C114.843 30.5306 115.489 31.2848 115.873 32.1947C116.28 33.1045 116.483 34.0143 116.483 34.9242C116.483 35.9776 116.268 36.9354 115.837 37.7973C115.406 38.6353 114.819 39.3656 114.077 39.9881C113.359 40.5867 112.497 41.0535 111.491 41.3887C110.509 41.7239 109.468 41.8915 108.366 41.8915ZM108.797 30.2912C108.199 30.2912 107.636 30.3989 107.109 30.6144C106.607 30.806 106.152 31.1053 105.745 31.5123C105.362 31.8954 105.05 32.3742 104.811 32.9489C104.595 33.5235 104.488 34.1939 104.488 34.9601C104.488 35.822 104.607 36.6002 104.847 37.2945C105.086 37.9649 105.41 38.5395 105.817 39.0184C106.248 39.4733 106.75 39.8325 107.325 40.0958C107.9 40.3353 108.51 40.455 109.157 40.455C109.755 40.455 110.318 40.3712 110.845 40.2036C111.371 40.036 111.826 39.7726 112.209 39.4135C112.616 39.0543 112.928 38.5874 113.143 38.0128C113.382 37.4382 113.502 36.7438 113.502 35.9298C113.502 35.1875 113.394 34.4812 113.179 33.8108C112.987 33.1404 112.688 32.5418 112.281 32.0151C111.898 31.4883 111.407 31.0693 110.809 30.7581C110.234 30.4468 109.564 30.2912 108.797 30.2912Z" fill="white"></path><path d="M161.249 26.4202C161.034 26.8033 160.698 27.2103 160.243 27.6413C159.789 28.0483 159.382 28.3356 159.022 28.5032C158.663 28.3356 158.256 28.0483 157.801 27.6413C157.346 27.2103 156.999 26.8033 156.76 26.4202C156.999 26.0131 157.346 25.5941 157.801 25.1632C158.256 24.7322 158.663 24.4209 159.022 24.2294C159.382 24.4209 159.789 24.7322 160.243 25.1632C160.722 25.5941 161.058 26.0131 161.249 26.4202ZM157.514 32.6693C157.921 32.4538 158.364 32.2982 158.843 32.2024C159.346 32.1066 159.848 32.0587 160.351 32.0587V50.5187C160.016 50.7103 159.573 50.842 159.022 50.9138C158.496 51.0096 157.993 51.0574 157.514 51.0574V32.6693Z" fill="white"></path><path d="M165.891 23.6907C166.298 23.4752 166.741 23.3196 167.22 23.2238C167.722 23.128 168.225 23.0801 168.728 23.0801V35.3629C169.063 34.9319 169.458 34.5009 169.913 34.0699C170.392 33.639 170.931 33.2559 171.529 32.9207C172.128 32.5615 172.786 32.2742 173.505 32.0587C174.247 31.8193 175.037 31.6996 175.875 31.6996C177.072 31.6996 178.138 31.9151 179.071 32.3461C180.029 32.777 180.843 33.3756 181.514 34.1418C182.184 34.9079 182.687 35.8178 183.022 36.8713C183.381 37.9008 183.561 39.0142 183.561 40.2113C183.561 41.7676 183.297 43.2281 182.771 44.5929C182.244 45.9337 181.502 47.1069 180.544 48.1125C179.61 49.1181 178.473 49.9202 177.132 50.5187C175.815 51.0934 174.355 51.3807 172.75 51.3807C171.122 51.3807 169.746 51.2011 168.62 50.842C167.495 50.4828 166.585 50.0638 165.891 49.585V23.6907ZM174.546 33.7108C173.277 33.7108 172.128 34.0939 171.098 34.8601C170.069 35.6023 169.279 36.5241 168.728 37.6255V48.1843C169.303 48.6392 170.033 49.0103 170.919 49.2976C171.829 49.585 172.846 49.7286 173.972 49.7286C174.881 49.7286 175.731 49.561 176.521 49.2258C177.335 48.8667 178.042 48.3519 178.64 47.6815C179.239 47.0111 179.706 46.1731 180.041 45.1675C180.4 44.1619 180.58 43.0007 180.58 41.6838C180.58 39.1458 180.041 37.1825 178.964 35.7938C177.886 34.4051 176.414 33.7108 174.546 33.7108Z" fill="white"></path><path d="M189.245 41.5401C189.317 42.8331 189.544 43.9703 189.927 44.952C190.334 45.9097 190.849 46.7118 191.471 47.3583C192.094 48.0047 192.812 48.4956 193.626 48.8308C194.464 49.142 195.35 49.2976 196.284 49.2976C197.457 49.2976 198.463 49.142 199.301 48.8308C200.163 48.5195 200.941 48.0287 201.635 47.3583C201.97 47.4301 202.198 47.6576 202.318 48.0406C202.15 48.304 201.875 48.6272 201.492 49.0103C201.132 49.3934 200.642 49.7645 200.019 50.1237C199.42 50.4828 198.69 50.7821 197.828 51.0215C196.99 51.2849 196.009 51.4166 194.883 51.4166C193.686 51.4166 192.573 51.2011 191.543 50.7701C190.514 50.3392 189.616 49.7166 188.85 48.9026C188.084 48.0885 187.473 47.0829 187.018 45.8858C186.587 44.6886 186.372 43.3359 186.372 41.8274C186.372 40.4388 186.611 39.1339 187.09 37.9128C187.569 36.6677 188.215 35.5903 189.029 34.6805C189.867 33.7707 190.837 33.0524 191.938 32.5256C193.064 31.9749 194.261 31.6996 195.53 31.6996C196.895 31.6996 198.02 31.927 198.906 32.382C199.792 32.8369 200.486 33.4235 200.989 34.1418C201.515 34.8601 201.875 35.6502 202.066 36.5121C202.282 37.3741 202.389 38.2121 202.389 39.0261C202.198 39.3134 201.934 39.5648 201.599 39.7803C201.288 39.9958 200.941 40.1634 200.558 40.2831L189.245 41.5401ZM194.596 33.3157C193.854 33.3157 193.159 33.4474 192.513 33.7108C191.866 33.9742 191.304 34.3812 190.825 34.9319C190.346 35.4826 189.951 36.1889 189.64 37.0508C189.352 37.9128 189.197 38.9543 189.173 40.1754L199.301 39.1339C199.325 39.0142 199.337 38.8944 199.337 38.7747C199.337 38.655 199.337 38.5473 199.337 38.4515C199.337 37.7093 199.241 37.0269 199.049 36.4044C198.858 35.7819 198.559 35.2431 198.152 34.7882C197.768 34.3333 197.278 33.9742 196.679 33.7108C196.104 33.4474 195.41 33.3157 194.596 33.3157Z" fill="white"></path><path d="M204.915 46.9991C205.107 46.6639 205.418 46.3527 205.849 46.0653C206.304 45.778 206.783 45.6104 207.286 45.5625C207.453 46.7836 208.04 47.8012 209.045 48.6153C210.075 49.4054 211.38 49.8004 212.96 49.8004C214.468 49.8004 215.582 49.4772 216.3 48.8308C217.042 48.1604 217.413 47.3343 217.413 46.3527C217.413 45.371 217.066 44.6048 216.372 44.0541C215.702 43.5035 214.54 43.0246 212.888 42.6176L210.769 42.0788C210.003 41.8873 209.309 41.6718 208.686 41.4324C208.088 41.193 207.561 40.9056 207.106 40.5704C206.675 40.2113 206.34 39.7923 206.1 39.3134C205.861 38.8346 205.741 38.248 205.741 37.5536C205.741 36.8114 205.933 36.0931 206.316 35.3988C206.699 34.6805 207.226 34.046 207.896 33.4953C208.591 32.9446 209.381 32.5137 210.267 32.2024C211.176 31.8672 212.158 31.6996 213.211 31.6996C214.289 31.6996 215.199 31.8313 215.941 32.0946C216.683 32.3341 217.294 32.6453 217.773 33.0284C218.275 33.3876 218.635 33.7826 218.85 34.2136C219.089 34.6446 219.221 35.0277 219.245 35.3629C219.077 35.6981 218.79 35.9973 218.383 36.2607C217.976 36.5001 217.533 36.6438 217.054 36.6917C216.887 35.7819 216.42 34.9917 215.654 34.3213C214.887 33.6509 213.738 33.3157 212.206 33.3157C211.703 33.3157 211.2 33.3876 210.697 33.5312C210.219 33.6509 209.788 33.8425 209.405 34.1059C209.021 34.3692 208.71 34.6925 208.471 35.0755C208.231 35.4347 208.112 35.8657 208.112 36.3685C208.112 37.1825 208.399 37.841 208.974 38.3438C209.548 38.8226 210.554 39.2296 211.99 39.5648L214.181 40.1036C216.264 40.6303 217.749 41.3007 218.635 42.1148C219.544 42.9049 219.999 43.9225 219.999 45.1675C219.999 45.9576 219.82 46.7357 219.461 47.5019C219.101 48.2442 218.575 48.9146 217.88 49.5131C217.186 50.0878 216.336 50.5427 215.33 50.8779C214.325 51.237 213.176 51.4166 211.883 51.4166C210.757 51.4166 209.776 51.2729 208.938 50.9856C208.1 50.7222 207.381 50.3751 206.783 49.9441C206.208 49.5131 205.765 49.0462 205.454 48.5434C205.143 48.0167 204.963 47.5019 204.915 46.9991Z" fill="white"></path><path fill-rule="evenodd" clip-rule="evenodd" d="M102.89 14.7711C102.981 14.282 103.451 13.9592 103.941 14.0502C117.824 16.6313 126.967 21.0622 132.836 26.3346C138.72 31.6207 141.254 37.7018 142 43.4501C142.743 49.1773 141.71 54.55 140.506 58.4706C139.903 60.4349 139.254 62.0456 138.754 63.1682C138.503 63.7298 138.29 64.17 138.138 64.472C138.062 64.6231 138.002 64.7397 137.959 64.8197C137.938 64.8597 137.922 64.8906 137.91 64.912L137.896 64.9372L137.892 64.9444L137.891 64.9467C137.891 64.9467 137.89 64.948 137.102 64.5115C136.433 65.1141 136.432 65.113 136.432 65.113L136.431 65.1117L136.428 65.1083L136.419 65.0989C136.413 65.0914 136.404 65.0814 136.393 65.069C136.372 65.0442 136.343 65.0095 136.307 64.9651C136.234 64.8762 136.134 64.748 136.011 64.5804C135.767 64.2451 135.435 63.7517 135.069 63.0988C134.337 61.7926 133.467 59.8489 132.88 57.2588C131.702 52.0659 131.677 44.3434 136.067 34.0404C136.172 33.7927 136.376 33.6166 136.613 33.5382C135.35 31.52 133.716 29.5475 131.632 27.6747C126.085 22.6911 117.285 18.3635 103.611 15.8214C103.122 15.7304 102.799 15.2602 102.89 14.7711ZM137.548 35.1649C133.474 44.9345 133.565 52.1331 134.637 56.8605C135.181 59.2642 135.984 61.0464 136.64 62.2177C136.752 62.4166 136.859 62.5979 136.96 62.7616C137.008 62.6583 137.057 62.5494 137.108 62.435C137.584 61.3667 138.206 59.8248 138.784 57.9418C139.943 54.1679 140.912 49.0679 140.213 43.682C139.849 40.8789 139.033 37.9918 137.548 35.1649ZM137.102 64.5115L136.433 65.1141C136.628 65.3306 136.915 65.4395 137.204 65.4065C137.494 65.3735 137.749 65.2027 137.89 64.948L137.102 64.5115Z" fill="white"></path><path fill-rule="evenodd" clip-rule="evenodd" d="M170.862 14.8734C170.896 15.3696 170.522 15.7999 170.026 15.8344C156.757 16.7566 147.366 20.843 141.943 27.5592C141.631 27.9463 141.064 28.0067 140.677 27.6942C140.29 27.3817 140.229 26.8146 140.542 26.4275C146.4 19.1715 156.364 14.978 169.901 14.0372C170.397 14.0027 170.827 14.3771 170.862 14.8734Z" fill="white"></path><path fill-rule="evenodd" clip-rule="evenodd" d="M134.157 2.34992C130.497 3.86581 128.759 8.06138 130.275 11.721C131.791 15.3806 135.986 17.1184 139.646 15.6025C143.306 14.0866 145.043 9.89107 143.528 6.23146C142.012 2.57185 137.816 0.834027 134.157 2.34992ZM128.611 12.4104C126.714 7.83159 128.888 2.58214 133.467 0.685471C138.046 -1.2112 143.295 0.963149 145.192 5.54201C147.089 10.1209 144.914 15.3703 140.335 17.267C135.757 19.1637 130.507 16.9893 128.611 12.4104Z" fill="white"></path></svg>